<mxfile host="65bd71144e">
    <diagram id="CraftBeerDiagram" name="Diagrama Clases API">
        <mxGraphModel dx="1422" dy="794" grid="1" gridSize="10" guides="1" tooltips="1" connect="1" arrows="1" fold="1" page="1" pageScale="1" pageWidth="1400" pageHeight="1800" math="0" shadow="0">
            <root>
                <mxCell id="0"/>
                <mxCell id="1" parent="0"/>
                <mxCell id="2" value="&lt;b&gt;Usuario&lt;/b&gt;" style="swimlane;fontStyle=0;childLayout=stackLayout;horizontal=1;startSize=30;horizontalStack=0;resizeParent=1;resizeParentMax=0;resizeLast=0;collapsible=1;marginBottom=0;whiteSpace=wrap;html=1;fillColor=#dae8fc;strokeColor=#6c8ebf;" vertex="1" parent="1">
                    <mxGeometry x="80" y="100" width="200" height="240" as="geometry"/>
                </mxCell>
                <mxCell id="3" value="- id: int&lt;br&gt;- nombre: string&lt;br&gt;- email: string&lt;br&gt;- password: string&lt;br&gt;- telefono: string&lt;br&gt;- fechaNacimiento: date&lt;br&gt;- fechaRegistro: date" style="text;strokeColor=none;fillColor=none;align=left;verticalAlign=top;spacingLeft=4;spacingRight=4;overflow=hidden;rotatable=0;points=[[0,0.5],[1,0.5]];portConstraint=eastwest;whiteSpace=wrap;html=1;" vertex="1" parent="2">
                    <mxGeometry y="30" width="200" height="130" as="geometry"/>
                </mxCell>
                <mxCell id="4" value="" style="line;strokeWidth=1;fillColor=none;align=left;verticalAlign=middle;spacingTop=-1;spacingLeft=3;spacingRight=3;rotatable=0;labelPosition=right;points=[];portConstraint=eastwest;strokeColor=inherit;" vertex="1" parent="2">
                    <mxGeometry y="160" width="200" height="8" as="geometry"/>
                </mxCell>
                <mxCell id="5" value="+ registrar()&lt;br&gt;+ login()&lt;br&gt;+ actualizarPerfil()&lt;br&gt;+ cambiarPassword()" style="text;strokeColor=none;fillColor=none;align=left;verticalAlign=top;spacingLeft=4;spacingRight=4;overflow=hidden;rotatable=0;points=[[0,0.5],[1,0.5]];portConstraint=eastwest;whiteSpace=wrap;html=1;" vertex="1" parent="2">
                    <mxGeometry y="168" width="200" height="72" as="geometry"/>
                </mxCell>
                <mxCell id="6" value="&lt;b&gt;Direccion&lt;/b&gt;" style="swimlane;fontStyle=0;childLayout=stackLayout;horizontal=1;startSize=30;horizontalStack=0;resizeParent=1;resizeParentMax=0;resizeLast=0;collapsible=1;marginBottom=0;whiteSpace=wrap;html=1;fillColor=#d5e8d4;strokeColor=#82b366;" vertex="1" parent="1">
                    <mxGeometry x="80" y="400" width="200" height="220" as="geometry"/>
                </mxCell>
                <mxCell id="7" value="- id: int&lt;br&gt;- usuarioId: int&lt;br&gt;- tipo: string&lt;br&gt;- nombre: string&lt;br&gt;- calle: string&lt;br&gt;- ciudad: string&lt;br&gt;- region: string&lt;br&gt;- codigoPostal: string&lt;br&gt;- telefono: string&lt;br&gt;- esPredeterminada: boolean" style="text;strokeColor=none;fillColor=none;align=left;verticalAlign=top;spacingLeft=4;spacingRight=4;overflow=hidden;rotatable=0;points=[[0,0.5],[1,0.5]];portConstraint=eastwest;whiteSpace=wrap;html=1;" vertex="1" parent="6">
                    <mxGeometry y="30" width="200" height="160" as="geometry"/>
                </mxCell>
                <mxCell id="8" value="" style="line;strokeWidth=1;fillColor=none;align=left;verticalAlign=middle;spacingTop=-1;spacingLeft=3;spacingRight=3;rotatable=0;labelPosition=right;points=[];portConstraint=eastwest;strokeColor=inherit;" vertex="1" parent="6">
                    <mxGeometry y="190" width="200" height="8" as="geometry"/>
                </mxCell>
                <mxCell id="9" value="+ guardar()&lt;br&gt;+ eliminar()" style="text;strokeColor=none;fillColor=none;align=left;verticalAlign=top;spacingLeft=4;spacingRight=4;overflow=hidden;rotatable=0;points=[[0,0.5],[1,0.5]];portConstraint=eastwest;whiteSpace=wrap;html=1;" vertex="1" parent="6">
                    <mxGeometry y="198" width="200" height="22" as="geometry"/>
                </mxCell>
                <mxCell id="10" value="&lt;b&gt;Producto&lt;/b&gt;" style="swimlane;fontStyle=0;childLayout=stackLayout;horizontal=1;startSize=30;horizontalStack=0;resizeParent=1;resizeParentMax=0;resizeLast=0;collapsible=1;marginBottom=0;whiteSpace=wrap;html=1;fillColor=#fff2cc;strokeColor=#d6b656;" vertex="1" parent="1">
                    <mxGeometry x="400" y="100" width="220" height="300" as="geometry"/>
                </mxCell>
                <mxCell id="11" value="- id: int&lt;br&gt;- nombre: string&lt;br&gt;- tipo: string&lt;br&gt;- descripcion: string&lt;br&gt;- precio: decimal&lt;br&gt;- abv: decimal&lt;br&gt;- ibu: int&lt;br&gt;- formato: string&lt;br&gt;- stock: int&lt;br&gt;- activo: boolean&lt;br&gt;- imagen: string&lt;br&gt;- ingredientes: string[]&lt;br&gt;- temperatura: string" style="text;strokeColor=none;fillColor=none;align=left;verticalAlign=top;spacingLeft=4;spacingRight=4;overflow=hidden;rotatable=0;points=[[0,0.5],[1,0.5]];portConstraint=eastwest;whiteSpace=wrap;html=1;" vertex="1" parent="10">
                    <mxGeometry y="30" width="220" height="210" as="geometry"/>
                </mxCell>
                <mxCell id="12" value="" style="line;strokeWidth=1;fillColor=none;align=left;verticalAlign=middle;spacingTop=-1;spacingLeft=3;spacingRight=3;rotatable=0;labelPosition=right;points=[];portConstraint=eastwest;strokeColor=inherit;" vertex="1" parent="10">
                    <mxGeometry y="240" width="220" height="8" as="geometry"/>
                </mxCell>
                <mxCell id="13" value="+ buscar(criterios)&lt;br&gt;+ filtrar(tipo, precio, abv)&lt;br&gt;+ actualizarStock(cantidad)&lt;br&gt;+ activar() / desactivar()" style="text;strokeColor=none;fillColor=none;align=left;verticalAlign=top;spacingLeft=4;spacingRight=4;overflow=hidden;rotatable=0;points=[[0,0.5],[1,0.5]];portConstraint=eastwest;whiteSpace=wrap;html=1;" vertex="1" parent="10">
                    <mxGeometry y="248" width="220" height="52" as="geometry"/>
                </mxCell>
                <mxCell id="14" value="&lt;b&gt;Carrito&lt;/b&gt;" style="swimlane;fontStyle=0;childLayout=stackLayout;horizontal=1;startSize=30;horizontalStack=0;resizeParent=1;resizeParentMax=0;resizeLast=0;collapsible=1;marginBottom=0;whiteSpace=wrap;html=1;fillColor=#f8cecc;strokeColor=#b85450;" vertex="1" parent="1">
                    <mxGeometry x="750" y="100" width="200" height="180" as="geometry"/>
                </mxCell>
                <mxCell id="15" value="- id: int&lt;br&gt;- usuarioId: int&lt;br&gt;- items: ItemCarrito[]&lt;br&gt;- fechaCreacion: date" style="text;strokeColor=none;fillColor=none;align=left;verticalAlign=top;spacingLeft=4;spacingRight=4;overflow=hidden;rotatable=0;points=[[0,0.5],[1,0.5]];portConstraint=eastwest;whiteSpace=wrap;html=1;" vertex="1" parent="14">
                    <mxGeometry y="30" width="200" height="80" as="geometry"/>
                </mxCell>
                <mxCell id="16" value="" style="line;strokeWidth=1;fillColor=none;align=left;verticalAlign=middle;spacingTop=-1;spacingLeft=3;spacingRight=3;rotatable=0;labelPosition=right;points=[];portConstraint=eastwest;strokeColor=inherit;" vertex="1" parent="14">
                    <mxGeometry y="110" width="200" height="8" as="geometry"/>
                </mxCell>
                <mxCell id="17" value="+ agregarItem(producto, qty)&lt;br&gt;+ eliminarItem(itemId)&lt;br&gt;+ actualizarCantidad()&lt;br&gt;+ calcularTotal()" style="text;strokeColor=none;fillColor=none;align=left;verticalAlign=top;spacingLeft=4;spacingRight=4;overflow=hidden;rotatable=0;points=[[0,0.5],[1,0.5]];portConstraint=eastwest;whiteSpace=wrap;html=1;" vertex="1" parent="14">
                    <mxGeometry y="118" width="200" height="62" as="geometry"/>
                </mxCell>
                <mxCell id="18" value="&lt;b&gt;ItemCarrito&lt;/b&gt;" style="swimlane;fontStyle=0;childLayout=stackLayout;horizontal=1;startSize=30;horizontalStack=0;resizeParent=1;resizeParentMax=0;resizeLast=0;collapsible=1;marginBottom=0;whiteSpace=wrap;html=1;fillColor=#f8cecc;strokeColor=#b85450;" vertex="1" parent="1">
                    <mxGeometry x="750" y="340" width="200" height="150" as="geometry"/>
                </mxCell>
                <mxCell id="19" value="- id: int&lt;br&gt;- productoId: int&lt;br&gt;- cantidad: int&lt;br&gt;- precioUnitario: decimal" style="text;strokeColor=none;fillColor=none;align=left;verticalAlign=top;spacingLeft=4;spacingRight=4;overflow=hidden;rotatable=0;points=[[0,0.5],[1,0.5]];portConstraint=eastwest;whiteSpace=wrap;html=1;" vertex="1" parent="18">
                    <mxGeometry y="30" width="200" height="80" as="geometry"/>
                </mxCell>
                <mxCell id="20" value="" style="line;strokeWidth=1;fillColor=none;align=left;verticalAlign=middle;spacingTop=-1;spacingLeft=3;spacingRight=3;rotatable=0;labelPosition=right;points=[];portConstraint=eastwest;strokeColor=inherit;" vertex="1" parent="18">
                    <mxGeometry y="110" width="200" height="8" as="geometry"/>
                </mxCell>
                <mxCell id="21" value="+ calcularSubtotal()" style="text;strokeColor=none;fillColor=none;align=left;verticalAlign=top;spacingLeft=4;spacingRight=4;overflow=hidden;rotatable=0;points=[[0,0.5],[1,0.5]];portConstraint=eastwest;whiteSpace=wrap;html=1;" vertex="1" parent="18">
                    <mxGeometry y="118" width="200" height="32" as="geometry"/>
                </mxCell>
                <mxCell id="22" value="&lt;b&gt;Pedido&lt;/b&gt;" style="swimlane;fontStyle=0;childLayout=stackLayout;horizontal=1;startSize=30;horizontalStack=0;resizeParent=1;resizeParentMax=0;resizeLast=0;collapsible=1;marginBottom=0;whiteSpace=wrap;html=1;fillColor=#e1d5e7;strokeColor=#9673a6;" vertex="1" parent="1">
                    <mxGeometry x="400" y="500" width="220" height="300" as="geometry"/>
                </mxCell>
                <mxCell id="23" value="- id: int&lt;br&gt;- numeroOrden: string&lt;br&gt;- usuarioId: int&lt;br&gt;- direccionId: int&lt;br&gt;- items: ItemPedido[]&lt;br&gt;- estado: string&lt;br&gt;- subtotal: decimal&lt;br&gt;- iva: decimal&lt;br&gt;- costoEnvio: decimal&lt;br&gt;- total: decimal&lt;br&gt;- metodoPago: string&lt;br&gt;- fechaPedido: date&lt;br&gt;- fechaEntrega: date" style="text;strokeColor=none;fillColor=none;align=left;verticalAlign=top;spacingLeft=4;spacingRight=4;overflow=hidden;rotatable=0;points=[[0,0.5],[1,0.5]];portConstraint=eastwest;whiteSpace=wrap;html=1;" vertex="1" parent="22">
                    <mxGeometry y="30" width="220" height="210" as="geometry"/>
                </mxCell>
                <mxCell id="24" value="" style="line;strokeWidth=1;fillColor=none;align=left;verticalAlign=middle;spacingTop=-1;spacingLeft=3;spacingRight=3;rotatable=0;labelPosition=right;points=[];portConstraint=eastwest;strokeColor=inherit;" vertex="1" parent="22">
                    <mxGeometry y="240" width="220" height="8" as="geometry"/>
                </mxCell>
                <mxCell id="25" value="+ crear()&lt;br&gt;+ actualizarEstado()&lt;br&gt;+ cancelar()&lt;br&gt;+ obtenerHistorial()" style="text;strokeColor=none;fillColor=none;align=left;verticalAlign=top;spacingLeft=4;spacingRight=4;overflow=hidden;rotatable=0;points=[[0,0.5],[1,0.5]];portConstraint=eastwest;whiteSpace=wrap;html=1;" vertex="1" parent="22">
                    <mxGeometry y="248" width="220" height="52" as="geometry"/>
                </mxCell>
                <mxCell id="26" value="&lt;b&gt;ItemPedido&lt;/b&gt;" style="swimlane;fontStyle=0;childLayout=stackLayout;horizontal=1;startSize=30;horizontalStack=0;resizeParent=1;resizeParentMax=0;resizeLast=0;collapsible=1;marginBottom=0;whiteSpace=wrap;html=1;fillColor=#e1d5e7;strokeColor=#9673a6;" vertex="1" parent="1">
                    <mxGeometry x="750" y="580" width="200" height="160" as="geometry"/>
                </mxCell>
                <mxCell id="27" value="- id: int&lt;br&gt;- productoId: int&lt;br&gt;- nombreProducto: string&lt;br&gt;- cantidad: int&lt;br&gt;- precioUnitario: decimal" style="text;strokeColor=none;fillColor=none;align=left;verticalAlign=top;spacingLeft=4;spacingRight=4;overflow=hidden;rotatable=0;points=[[0,0.5],[1,0.5]];portConstraint=eastwest;whiteSpace=wrap;html=1;" vertex="1" parent="26">
                    <mxGeometry y="30" width="200" height="90" as="geometry"/>
                </mxCell>
                <mxCell id="28" value="" style="line;strokeWidth=1;fillColor=none;align=left;verticalAlign=middle;spacingTop=-1;spacingLeft=3;spacingRight=3;rotatable=0;labelPosition=right;points=[];portConstraint=eastwest;strokeColor=inherit;" vertex="1" parent="26">
                    <mxGeometry y="120" width="200" height="8" as="geometry"/>
                </mxCell>
                <mxCell id="29" value="+ calcularSubtotal()" style="text;strokeColor=none;fillColor=none;align=left;verticalAlign=top;spacingLeft=4;spacingRight=4;overflow=hidden;rotatable=0;points=[[0,0.5],[1,0.5]];portConstraint=eastwest;whiteSpace=wrap;html=1;" vertex="1" parent="26">
                    <mxGeometry y="128" width="200" height="32" as="geometry"/>
                </mxCell>
                <mxCell id="30" value="&lt;b&gt;Valoracion&lt;/b&gt;" style="swimlane;fontStyle=0;childLayout=stackLayout;horizontal=1;startSize=30;horizontalStack=0;resizeParent=1;resizeParentMax=0;resizeLast=0;collapsible=1;marginBottom=0;whiteSpace=wrap;html=1;fillColor=#ffe6cc;strokeColor=#d79b00;" vertex="1" parent="1">
                    <mxGeometry x="80" y="700" width="200" height="190" as="geometry"/>
                </mxCell>
                <mxCell id="31" value="- id: int&lt;br&gt;- productoId: int&lt;br&gt;- usuarioId: int&lt;br&gt;- puntuacion: int&lt;br&gt;- comentario: string&lt;br&gt;- fecha: date&lt;br&gt;- verificado: boolean" style="text;strokeColor=none;fillColor=none;align=left;verticalAlign=top;spacingLeft=4;spacingRight=4;overflow=hidden;rotatable=0;points=[[0,0.5],[1,0.5]];portConstraint=eastwest;whiteSpace=wrap;html=1;" vertex="1" parent="30">
                    <mxGeometry y="30" width="200" height="120" as="geometry"/>
                </mxCell>
                <mxCell id="32" value="" style="line;strokeWidth=1;fillColor=none;align=left;verticalAlign=middle;spacingTop=-1;spacingLeft=3;spacingRight=3;rotatable=0;labelPosition=right;points=[];portConstraint=eastwest;strokeColor=inherit;" vertex="1" parent="30">
                    <mxGeometry y="150" width="200" height="8" as="geometry"/>
                </mxCell>
                <mxCell id="33" value="+ crear()&lt;br&gt;+ obtenerPorProducto()" style="text;strokeColor=none;fillColor=none;align=left;verticalAlign=top;spacingLeft=4;spacingRight=4;overflow=hidden;rotatable=0;points=[[0,0.5],[1,0.5]];portConstraint=eastwest;whiteSpace=wrap;html=1;" vertex="1" parent="30">
                    <mxGeometry y="158" width="200" height="32" as="geometry"/>
                </mxCell>
                <mxCell id="34" value="&lt;b&gt;Pago&lt;/b&gt;" style="swimlane;fontStyle=0;childLayout=stackLayout;horizontal=1;startSize=30;horizontalStack=0;resizeParent=1;resizeParentMax=0;resizeLast=0;collapsible=1;marginBottom=0;whiteSpace=wrap;html=1;fillColor=#d5e8d4;strokeColor=#82b366;" vertex="1" parent="1">
                    <mxGeometry x="750" y="850" width="200" height="180" as="geometry"/>
                </mxCell>
                <mxCell id="35" value="- id: int&lt;br&gt;- pedidoId: int&lt;br&gt;- metodo: string&lt;br&gt;- monto: decimal&lt;br&gt;- estado: string&lt;br&gt;- fecha: date&lt;br&gt;- numeroComprobante: string" style="text;strokeColor=none;fillColor=none;align=left;verticalAlign=top;spacingLeft=4;spacingRight=4;overflow=hidden;rotatable=0;points=[[0,0.5],[1,0.5]];portConstraint=eastwest;whiteSpace=wrap;html=1;" vertex="1" parent="34">
                    <mxGeometry y="30" width="200" height="110" as="geometry"/>
                </mxCell>
                <mxCell id="36" value="" style="line;strokeWidth=1;fillColor=none;align=left;verticalAlign=middle;spacingTop=-1;spacingLeft=3;spacingRight=3;rotatable=0;labelPosition=right;points=[];portConstraint=eastwest;strokeColor=inherit;" vertex="1" parent="34">
                    <mxGeometry y="140" width="200" height="8" as="geometry"/>
                </mxCell>
                <mxCell id="37" value="+ simularPago()&lt;br&gt;+ generarComprobante()" style="text;strokeColor=none;fillColor=none;align=left;verticalAlign=top;spacingLeft=4;spacingRight=4;overflow=hidden;rotatable=0;points=[[0,0.5],[1,0.5]];portConstraint=eastwest;whiteSpace=wrap;html=1;" vertex="1" parent="34">
                    <mxGeometry y="148" width="200" height="32" as="geometry"/>
                </mxCell>
                <mxCell id="38" value="" style="endArrow=diamondThin;endFill=1;endSize=24;html=1;exitX=0.5;exitY=1;exitDx=0;exitDy=0;entryX=0.5;entryY=0;entryDx=0;entryDy=0;" edge="1" parent="1" source="2" target="6">
                    <mxGeometry width="160" relative="1" as="geometry">
                        <mxPoint x="400" y="500" as="sourcePoint"/>
                        <mxPoint x="560" y="500" as="targetPoint"/>
                    </mxGeometry>
                </mxCell>
                <mxCell id="39" value="1 tiene 0..*" style="edgeLabel;html=1;align=center;verticalAlign=middle;resizable=0;points=[];" vertex="1" connectable="0" parent="38">
                    <mxGeometry x="-0.1" y="1" relative="1" as="geometry">
                        <mxPoint x="25" y="-9" as="offset"/>
                    </mxGeometry>
                </mxCell>
                <mxCell id="40" value="" style="endArrow=none;html=1;exitX=1;exitY=0.25;exitDx=0;exitDy=0;entryX=0;entryY=0.5;entryDx=0;entryDy=0;startArrow=diamondThin;startFill=1;startSize=24;" edge="1" parent="1" source="2" target="15">
                    <mxGeometry width="50" height="50" relative="1" as="geometry">
                        <mxPoint x="400" y="500" as="sourcePoint"/>
                        <mxPoint x="450" y="450" as="targetPoint"/>
                    </mxGeometry>
                </mxCell>
                <mxCell id="41" value="1 posee 0..1" style="edgeLabel;html=1;align=center;verticalAlign=middle;resizable=0;points=[];" vertex="1" connectable="0" parent="40">
                    <mxGeometry x="-0.1" y="1" relative="1" as="geometry">
                        <mxPoint x="40" y="-11" as="offset"/>
                    </mxGeometry>
                </mxCell>
                <mxCell id="42" value="" style="endArrow=diamondThin;endFill=1;endSize=24;html=1;exitX=0.5;exitY=1;exitDx=0;exitDy=0;entryX=0.5;entryY=0;entryDx=0;entryDy=0;" edge="1" parent="1" source="14" target="18">
                    <mxGeometry width="160" relative="1" as="geometry">
                        <mxPoint x="400" y="500" as="sourcePoint"/>
                        <mxPoint x="560" y="500" as="targetPoint"/>
                    </mxGeometry>
                </mxCell>
                <mxCell id="43" value="1 contiene 0..*" style="edgeLabel;html=1;align=center;verticalAlign=middle;resizable=0;points=[];" vertex="1" connectable="0" parent="42">
                    <mxGeometry x="-0.1" y="1" relative="1" as="geometry">
                        <mxPoint x="35" y="-9" as="offset"/>
                    </mxGeometry>
                </mxCell>
                <mxCell id="44" value="" style="endArrow=open;html=1;exitX=0;exitY=0.25;exitDx=0;exitDy=0;entryX=1;entryY=0.5;entryDx=0;entryDy=0;dashed=1;" edge="1" parent="1" source="18" target="11">
                    <mxGeometry width="50" height="50" relative="1" as="geometry">
                        <mxPoint x="400" y="500" as="sourcePoint"/>
                        <mxPoint x="450" y="450" as="targetPoint"/>
                        <Array as="points">
                            <mxPoint x="680" y="378"/>
                            <mxPoint x="680" y="235"/>
                        </Array>
                    </mxGeometry>
                </mxCell>
                <mxCell id="45" value="* ref 1" style="edgeLabel;html=1;align=center;verticalAlign=middle;resizable=0;points=[];" vertex="1" connectable="0" parent="44">
                    <mxGeometry x="-0.1" y="1" relative="1" as="geometry">
                        <mxPoint x="5" y="-42" as="offset"/>
                    </mxGeometry>
                </mxCell>
                <mxCell id="46" value="" style="endArrow=diamondThin;endFill=1;endSize=24;html=1;exitX=1;exitY=0.75;exitDx=0;exitDy=0;entryX=0;entryY=0.25;entryDx=0;entryDy=0;" edge="1" parent="1" source="2" target="22">
                    <mxGeometry width="160" relative="1" as="geometry">
                        <mxPoint x="400" y="600" as="sourcePoint"/>
                        <mxPoint x="560" y="600" as="targetPoint"/>
                        <Array as="points">
                            <mxPoint x="340" y="280"/>
                            <mxPoint x="340" y="575"/>
                        </Array>
                    </mxGeometry>
                </mxCell>
                <mxCell id="47" value="1 realiza 0..*" style="edgeLabel;html=1;align=center;verticalAlign=middle;resizable=0;points=[];" vertex="1" connectable="0" parent="46">
                    <mxGeometry x="-0.1" y="1" relative="1" as="geometry">
                        <mxPoint x="10" y="-119" as="offset"/>
                    </mxGeometry>
                </mxCell>
                <mxCell id="48" value="" style="endArrow=diamondThin;endFill=1;endSize=24;html=1;exitX=1;exitY=0.5;exitDx=0;exitDy=0;entryX=0;entryY=0.5;entryDx=0;entryDy=0;" edge="1" parent="1" source="23" target="27">
                    <mxGeometry width="160" relative="1" as="geometry">
                        <mxPoint x="400" y="700" as="sourcePoint"/>
                        <mxPoint x="560" y="700" as="targetPoint"/>
                    </mxGeometry>
                </mxCell>
                <mxCell id="49" value="1 contiene 1..*" style="edgeLabel;html=1;align=center;verticalAlign=middle;resizable=0;points=[];" vertex="1" connectable="0" parent="48">
                    <mxGeometry x="-0.1" y="1" relative="1" as="geometry">
                        <mxPoint x="30" y="-9" as="offset"/>
                    </mxGeometry>
                </mxCell>
                <mxCell id="50" value="" style="endArrow=open;html=1;exitX=0.5;exitY=0;exitDx=0;exitDy=0;entryX=0.5;entryY=1;entryDx=0;entryDy=0;dashed=1;" edge="1" parent="1" source="26" target="10">
                    <mxGeometry width="50" height="50" relative="1" as="geometry">
                        <mxPoint x="400" y="600" as="sourcePoint"/>
                        <mxPoint x="450" y="550" as="targetPoint"/>
                        <Array as="points">
                            <mxPoint x="850" y="480"/>
                            <mxPoint x="510" y="480"/>
                        </Array>
                    </mxGeometry>
                </mxCell>
                <mxCell id="51" value="* ref 1" style="edgeLabel;html=1;align=center;verticalAlign=middle;resizable=0;points=[];" vertex="1" connectable="0" parent="50">
                    <mxGeometry x="-0.1" y="1" relative="1" as="geometry">
                        <mxPoint x="-30" y="-9" as="offset"/>
                    </mxGeometry>
                </mxCell>
                <mxCell id="52" value="" style="endArrow=open;html=1;exitX=0;exitY=0.5;exitDx=0;exitDy=0;entryX=1;entryY=0.5;entryDx=0;entryDy=0;dashed=1;" edge="1" parent="1" source="23" target="7">
                    <mxGeometry width="50" height="50" relative="1" as="geometry">
                        <mxPoint x="300" y="650" as="sourcePoint"/>
                        <mxPoint x="350" y="600" as="targetPoint"/>
                    </mxGeometry>
                </mxCell>
                <mxCell id="53" value="* usa 1" style="edgeLabel;html=1;align=center;verticalAlign=middle;resizable=0;points=[];" vertex="1" connectable="0" parent="52">
                    <mxGeometry x="-0.1" y="1" relative="1" as="geometry">
                        <mxPoint x="5" y="-9" as="offset"/>
                    </mxGeometry>
                </mxCell>
                <mxCell id="54" value="" style="endArrow=diamondThin;endFill=0;endSize=24;html=1;exitX=0.5;exitY=1;exitDx=0;exitDy=0;entryX=0;entryY=0.5;entryDx=0;entryDy=0;" edge="1" parent="1" source="22" target="35">
                    <mxGeometry width="160" relative="1" as="geometry">
                        <mxPoint x="400" y="900" as="sourcePoint"/>
                        <mxPoint x="560" y="900" as="targetPoint"/>
                        <Array as="points">
                            <mxPoint x="510" y="935"/>
                        </Array>
                    </mxGeometry>
                </mxCell>
                <mxCell id="55" value="1 genera 1" style="edgeLabel;html=1;align=center;verticalAlign=middle;resizable=0;points=[];" vertex="1" connectable="0" parent="54">
                    <mxGeometry x="-0.1" y="1" relative="1" as="geometry">
                        <mxPoint x="30" y="-9" as="offset"/>
                    </mxGeometry>
                </mxCell>
                <mxCell id="56" value="" style="endArrow=diamondThin;endFill=1;endSize=24;html=1;exitX=0;exitY=0.75;exitDx=0;exitDy=0;entryX=1;entryY=0.25;entryDx=0;entryDy=0;" edge="1" parent="1" source="10" target="30">
                    <mxGeometry width="160" relative="1" as="geometry">
                        <mxPoint x="300" y="800" as="sourcePoint"/>
                        <mxPoint x="460" y="800" as="targetPoint"/>
                        <Array as="points">
                            <mxPoint x="340" y="325"/>
                            <mxPoint x="340" y="748"/>
                        </Array>
                    </mxGeometry>
                </mxCell>
                <mxCell id="57" value="1 tiene 0..*" style="edgeLabel;html=1;align=center;verticalAlign=middle;resizable=0;points=[];" vertex="1" connectable="0" parent="56">
                    <mxGeometry x="-0.1" y="1" relative="1" as="geometry">
                        <mxPoint x="10" y="-177" as="offset"/>
                    </mxGeometry>
                </mxCell>
                <mxCell id="58" value="" style="endArrow=diamondThin;endFill=0;endSize=24;html=1;exitX=0;exitY=0.75;exitDx=0;exitDy=0;entryX=0.5;entryY=0;entryDx=0;entryDy=0;" edge="1" parent="1" source="2" target="30">
                    <mxGeometry width="160" relative="1" as="geometry">
                        <mxPoint x="0" y="650" as="sourcePoint"/>
                        <mxPoint x="160" y="650" as="targetPoint"/>
                        <Array as="points">
                            <mxPoint x="40" y="280"/>
                            <mxPoint x="40" y="660"/>
                            <mxPoint x="180" y="660"/>
                        </Array>
                    </mxGeometry>
                </mxCell>
                <mxCell id="59" value="1 escribe 0..*" style="edgeLabel;html=1;align=center;verticalAlign=middle;resizable=0;points=[];" vertex="1" connectable="0" parent="58">
                    <mxGeometry x="-0.1" y="1" relative="1" as="geometry">
                        <mxPoint x="7" y="-175" as="offset"/>
                    </mxGeometry>
                </mxCell>
                <mxCell id="60" value="&lt;h1&gt;API CRAFT &amp;amp; BEER&lt;/h1&gt;&lt;p&gt;Diagrama de Clases E-Commerce&lt;/p&gt;" style="text;html=1;strokeColor=none;fillColor=none;spacing=5;spacingTop=-20;whiteSpace=wrap;overflow=hidden;rounded=0;" vertex="1" parent="1">
                    <mxGeometry x="80" y="20" width="340" height="60" as="geometry"/>
                </mxCell>
                <mxCell id="61" value="&lt;b&gt;LEYENDA&lt;/b&gt;&lt;br&gt;&lt;br&gt;◆ Composicion&lt;br&gt;◇ Agregacion&lt;br&gt;--- Dependencia&lt;br&gt;&lt;br&gt;&lt;b&gt;Estados Pedido:&lt;/b&gt;&lt;br&gt;Procesando&lt;br&gt;En Camino&lt;br&gt;Entregado&lt;br&gt;Cancelado&lt;br&gt;&lt;br&gt;&lt;b&gt;Metodos Pago:&lt;/b&gt;&lt;br&gt;Tarjeta (simulado)&lt;br&gt;Transferencia (simulado)&lt;br&gt;&lt;br&gt;&lt;b&gt;NOTA:&lt;/b&gt;&lt;br&gt;- Pagos simulados&lt;br&gt;- Sin APIs externas" style="text;html=1;strokeColor=#666666;fillColor=#f5f5f5;align=left;verticalAlign=top;whiteSpace=wrap;rounded=0;fontColor=#333333;" vertex="1" parent="1">
                    <mxGeometry x="1050" y="100" width="160" height="300" as="geometry"/>
                </mxCell>
            </root>
        </mxGraphModel>
    </diagram>
</mxfile>
